<?xml version="1.0" standalone="no"?>
<!DOCTYPE svg PUBLIC "-//W3C//DTD SVG 20010904//EN"
 "http://www.w3.org/TR/2001/REC-SVG-20010904/DTD/svg10.dtd">
<svg version="1.0" xmlns="http://www.w3.org/2000/svg"
 width="1784.000000pt" height="506.000000pt" viewBox="0 0 1784.000000 506.000000"
 preserveAspectRatio="xMidYMid meet">

<g transform="translate(0.000000,506.000000) scale(0.100000,-0.100000)"
fill="#000000" stroke="none">
<path d="M12615 3783 c-278 -36 -502 -145 -676 -330 -170 -181 -276 -397 -325
-663 -23 -130 -24 -410 -1 -537 63 -346 248 -640 509 -810 389 -254 1018 -236
1376 41 76 58 199 188 252 265 202 298 271 744 176 1137 -119 487 -467 819
-936 890 -86 13 -300 17 -375 7z m310 -458 c230 -48 403 -229 472 -493 34
-131 43 -382 19 -519 -53 -306 -207 -509 -441 -579 -85 -26 -305 -26 -390 0
-214 64 -353 229 -426 504 -30 112 -37 355 -15 491 34 202 92 326 203 437 147
147 358 205 578 159z"/>
<path d="M1262 3508 l3 -223 363 -3 362 -2 0 -980 0 -980 265 0 265 0 0 980 0
980 360 0 360 0 0 225 0 225 -990 0 -990 0 2 -222z"/>
<path d="M3862 3278 c-95 -249 -299 -790 -455 -1203 l-284 -750 265 -3 c179
-1 268 1 272 8 4 6 47 125 96 265 l89 255 451 0 451 0 90 -262 90 -263 277 -3
c261 -2 277 -1 272 15 -4 10 -206 551 -449 1203 l-444 1185 -275 3 -275 2
-171 -452z m592 -578 c80 -234 146 -431 146 -437 0 -10 -68 -13 -305 -13 -168
0 -305 3 -305 6 0 6 275 784 299 848 7 16 13 27 15 25 2 -2 70 -195 150 -429z"/>
<path d="M5860 2525 l0 -1205 265 0 265 0 0 471 0 470 333 -3 c316 -3 335 -5
388 -26 100 -40 163 -124 194 -254 8 -35 23 -157 35 -273 22 -228 24 -242 47
-327 l16 -58 268 0 268 0 -24 43 c-41 75 -57 174 -75 464 -12 186 -41 320 -91
413 -42 79 -141 172 -210 198 l-52 19 73 38 c182 96 286 269 306 508 27 339
-181 628 -509 707 -78 19 -120 20 -789 20 l-708 0 0 -1205z m1203 785 c129
-19 218 -88 252 -196 24 -76 17 -239 -12 -304 -39 -88 -116 -141 -233 -159
-36 -6 -203 -11 -372 -11 l-308 0 0 340 0 340 303 0 c166 0 333 -5 370 -10z"/>
<path d="M8460 2525 l0 -1205 255 0 255 0 2 837 3 836 291 -834 292 -834 208
0 208 0 291 842 c160 463 294 846 298 849 4 4 7 -376 7 -844 l0 -852 250 0
250 0 0 1205 0 1205 -377 0 -378 0 -265 -824 c-145 -454 -267 -823 -271 -821
-3 2 -131 373 -285 825 l-278 820 -378 0 -378 0 0 -1205z"/>
<path d="M14490 2525 l0 -1205 270 0 270 0 0 471 0 470 328 -3 c369 -4 396 -9
475 -79 84 -73 116 -177 142 -457 19 -199 30 -279 51 -349 l15 -53 265 0 c146
0 264 3 262 8 -48 93 -65 167 -78 340 -20 271 -30 358 -50 431 -45 160 -123
266 -241 325 l-69 35 62 33 c82 42 206 165 241 238 46 95 68 202 68 330 0 195
-51 328 -176 459 -84 87 -166 140 -280 179 l-80 27 -737 3 -738 3 0 -1206z
m1277 772 c76 -25 133 -73 168 -142 28 -55 30 -65 30 -174 0 -100 -3 -123 -23
-166 -43 -94 -117 -146 -233 -165 -35 -5 -202 -10 -371 -10 l-308 0 0 341 0
341 343 -4 c288 -4 350 -7 394 -21z"/>
</g>
</svg>
